<svg width="851" height="357" viewBox="0 0 851 357" fill="none" xmlns="http://www.w3.org/2000/svg">
<path d="M162.5 0.49997H236V193.5H266V243H236V357H182.5V243H51L9.23872e-07 168.5L162.5 0.49997ZM63 174L76 193.5H182.5V51L63 174ZM407.305 6.99998H542.805V357H489.305V204H375.805V357H322.805V94.5L407.305 6.99998ZM375.805 109.5V154.5H489.305V56.5H426.805L375.805 109.5ZM615.609 6.99998H669.109V15.5L721.609 93.5L796.609 6.99998H850.109V357H796.609V79L753.609 127V163.5H710.109V157.5L669.109 96.5V357H615.609V6.99998Z" fill="black"/>
</svg>
